<?xml version="1.0" standalone="no"?>
<!DOCTYPE svg PUBLIC "-//W3C//DTD SVG 20010904//EN"
 "http://www.w3.org/TR/2001/REC-SVG-20010904/DTD/svg10.dtd">
<svg version="1.0" xmlns="http://www.w3.org/2000/svg"
 width="200.000000pt" height="200.000000pt" viewBox="0 0 200.000000 200.000000"
 preserveAspectRatio="xMidYMid meet">
<metadata>
Created by potrace 1.11, written by Peter Selinger 2001-2013
</metadata>
<g transform="translate(0.000000,200.000000) scale(0.100000,-0.100000)"
fill="#000000" stroke="none">
<path d="M1059 1606 c-2 -2 -49 -7 -104 -10 -65 -5 -114 -13 -140 -26 -44 -20
-75 -28 -149 -35 -98 -9 -129 -58 -141 -217 -5 -66 -12 -91 -49 -164 -50 -95
-53 -131 -21 -234 10 -30 19 -65 21 -78 12 -64 38 -102 115 -167 44 -37 84
-76 89 -86 6 -10 13 -51 16 -91 5 -56 11 -77 26 -91 38 -33 98 -6 98 44 0 18
14 44 40 75 23 25 39 51 37 57 -3 9 -122 87 -134 87 -6 0 -125 81 -139 95 -15
15 -52 88 -71 139 -19 54 -18 138 3 182 21 45 111 135 155 156 30 15 35 15 51
1 9 -8 18 -25 20 -37 4 -27 37 -29 103 -3 68 26 76 33 64 64 -5 14 -5 31 0 40
16 29 43 -30 44 -95 1 -73 -19 -104 -87 -137 -72 -35 -119 -42 -150 -21 -32
20 -42 20 -50 -1 -10 -26 21 -48 103 -72 40 -12 98 -33 128 -47 82 -36 83 -35
83 44 l0 67 78 19 c42 10 118 19 167 20 l90 1 -1 -88 -2 -87 -66 -70 -66 -70
-1 -78 c0 -42 -2 -123 -4 -179 -3 -94 -2 -104 17 -117 21 -15 75 -13 91 3 6 6
12 71 13 146 3 148 4 149 75 242 27 35 53 80 59 100 6 21 13 136 16 255 6 208
5 219 -15 251 -37 60 -124 134 -172 147 -24 6 -71 25 -104 41 -51 25 -122 38
-136 25z m71 -145 c25 -18 25 -21 26 -160 1 -129 0 -144 -18 -161 -25 -23 -64
-31 -82 -16 -9 8 -16 46 -20 121 -4 61 -13 138 -20 172 l-13 62 26 3 c41 6 74
-1 101 -21z m-182 -3 c10 -13 15 -39 13 -69 -1 -20 -18 -27 -81 -35 -42 -5
-50 -3 -60 16 -14 26 -4 77 18 90 24 14 98 12 110 -2z m362 -25 c36 -33 56
-93 59 -179 3 -74 -7 -85 -81 -87 l-53 -2 -3 124 c-2 98 1 128 13 147 20 31
28 30 65 -3z m-532 -18 c13 -13 1 -90 -16 -108 -25 -24 -96 -39 -117 -23 -17
12 -28 95 -15 116 13 21 131 33 148 15z"/>
</g>
</svg>
